<?xml version="1.0" encoding="UTF-8" standalone="no"?>
<svg
   id="svg"
   version="1.1"
   width="400"
   height="499.2287917737789"
   viewBox="0, 0, 400,499.2287917737789"
   sodipodi:docname="white.svg"
   inkscape:version="1.2.2 (732a01da63, 2022-12-09)"
   xmlns:inkscape="http://www.inkscape.org/namespaces/inkscape"
   xmlns:sodipodi="http://sodipodi.sourceforge.net/DTD/sodipodi-0.dtd"
   xmlns="http://www.w3.org/2000/svg"
   xmlns:svg="http://www.w3.org/2000/svg">
  <defs
     id="defs11" />
  <sodipodi:namedview
     id="namedview9"
     pagecolor="#ffffff"
     bordercolor="#000000"
     borderopacity="0.25"
     inkscape:showpageshadow="2"
     inkscape:pageopacity="0.0"
     inkscape:pagecheckerboard="0"
     inkscape:deskcolor="#d1d1d1"
     showgrid="false"
     inkscape:zoom="1.183826"
     inkscape:cx="200.62071"
     inkscape:cy="250.03675"
     inkscape:window-width="1366"
     inkscape:window-height="745"
     inkscape:window-x="-8"
     inkscape:window-y="-8"
     inkscape:window-maximized="1"
     inkscape:current-layer="svg" />
  <g
     id="svgg"
     style="fill:#552200">
    <path
       id="path0"
       d="M131.070 0.516 C 120.667 2.164,108.134 10.223,104.127 17.840 C 102.876 20.219,103.024 21.658,105.285 29.098 C 106.599 33.422,107.586 37.437,109.002 44.216 C 117.887 86.745,115.979 125.498,103.572 154.547 C 102.323 157.472,101.168 160.393,101.005 161.038 C 100.519 162.972,100.640 163.139,95.962 154.113 C 88.346 139.419,81.514 131.534,70.771 125.040 C 65.205 121.675,62.394 120.545,49.100 116.324 C 38.863 113.073,35.953 112.015,29.306 109.123 C 16.463 103.535,12.014 103.631,6.023 109.622 C -0.159 115.804,-0.838 121.902,2.206 143.919 C 4.915 163.510,6.499 171.059,10.313 182.563 C 21.079 215.035,39.188 236.930,65.674 249.502 C 71.157 252.104,70.881 251.882,72.538 255.050 C 74.687 259.160,76.659 260.981,82.095 263.880 C 84.735 265.288,84.614 264.600,83.176 270.051 C 80.936 278.543,83.008 285.819,89.353 291.744 L 91.306 293.568 90.988 295.889 C 89.806 304.540,92.326 312.627,100.438 326.221 C 106.608 336.560,107.418 339.557,110.276 362.596 C 113.075 385.162,115.046 392.972,120.249 402.106 C 124.354 409.315,132.280 417.185,138.817 420.546 C 141.024 421.680,141.841 421.984,143.982 422.462 L 144.649 422.611 144.057 425.637 C 139.957 446.598,147.872 462.850,172.327 483.689 C 196.139 503.979,203.659 503.929,228.021 483.316 C 252.392 462.695,260.351 446.405,256.154 425.732 C 255.503 422.526,255.516 422.365,256.430 422.365 C 261.071 422.365,273.119 412.658,278.488 404.593 C 284.977 394.845,287.679 384.664,290.486 359.383 C 292.693 339.497,293.700 335.812,299.278 327.187 C 306.605 315.858,310.650 302.455,309.027 294.885 C 308.745 293.570,308.759 293.480,309.314 293.094 C 316.639 287.995,319.700 277.363,316.567 267.901 C 316.080 266.428,315.681 265.187,315.681 265.141 C 315.681 265.096,317.098 264.339,318.830 263.460 C 322.831 261.429,324.836 259.522,327.179 255.521 C 329.258 251.970,329.218 252.002,335.283 249.112 C 374.377 230.487,396.735 188.533,399.507 128.602 C 400.105 115.673,398.023 110.711,390.440 106.991 C 383.810 103.738,382.059 104.025,366.067 110.988 C 358.597 114.241,356.057 115.149,346.848 117.858 C 325.149 124.243,313.574 134.657,301.764 158.419 C 300.728 160.504,299.820 162.211,299.747 162.211 C 299.541 162.210,294.459 149.343,293.299 145.887 C 283.849 117.716,283.432 78.858,292.161 39.717 C 293.347 34.400,293.457 33.985,295.493 27.121 C 297.535 20.236,297.416 19.217,294.077 15.067 C 283.046 1.354,265.129 -3.216,246.658 2.972 C 244.099 3.829,241.602 4.703,241.422 4.805 C 241.370 4.835,241.175 12.818,240.987 22.545 C 240.743 35.244,240.529 41.246,240.230 43.830 C 238.470 59.049,234.502 72.011,229.176 79.949 C 213.303 103.602,181.523 101.530,168.723 76.007 C 161.768 62.138,159.261 47.308,158.901 17.900 L 158.740 4.823 156.427 4.128 C 155.154 3.745,152.956 2.993,151.542 2.457 C 146.671 0.607,136.549 -0.352,131.070 0.516 M153.020 47.288 C 154.894 47.860,155.272 48.432,155.519 51.068 C 155.640 52.362,155.879 53.682,156.050 54.001 L 156.361 54.581 152.795 54.347 C 141.078 53.578,134.012 55.106,121.239 61.171 C 119.417 62.036,117.891 62.707,117.847 62.663 C 117.251 62.067,117.097 56.771,117.643 55.622 C 119.346 52.032,128.872 48.450,140.103 47.177 C 143.772 46.761,151.512 46.828,153.020 47.288 M260.026 47.049 C 268.192 47.805,272.190 49.064,279.789 53.269 L 283.100 55.101 282.931 56.792 C 282.839 57.722,282.691 59.438,282.603 60.604 C 282.515 61.771,282.394 62.725,282.334 62.725 C 282.274 62.725,279.117 61.394,275.317 59.767 C 262.862 54.433,258.665 53.616,247.494 54.347 C 245.549 54.474,243.961 54.532,243.963 54.474 C 243.965 54.417,244.133 53.907,244.337 53.342 C 244.541 52.776,244.713 51.656,244.719 50.852 C 244.734 48.852,245.063 48.121,246.153 47.666 C 248.078 46.862,254.783 46.563,260.026 47.049 M153.507 59.907 C 156.852 60.242,156.860 60.245,157.436 61.220 C 157.882 61.975,160.154 69.137,160.154 69.787 C 160.154 69.989,158.473 70.178,154.820 70.389 C 140.105 71.236,132.909 73.572,123.914 80.423 C 122.716 81.335,121.270 82.291,120.701 82.546 L 119.666 83.011 119.370 78.716 C 119.207 76.354,119.062 73.131,119.048 71.554 L 119.023 68.686 121.021 67.515 C 131.251 61.518,142.739 58.827,153.507 59.907 M256.819 59.909 C 263.982 60.792,272.132 63.516,278.478 67.147 L 281.307 68.766 281.145 72.237 C 281.055 74.145,280.906 77.355,280.812 79.370 C 280.718 81.385,280.572 83.031,280.487 83.029 C 280.033 83.015,277.410 81.312,274.807 79.340 C 267.172 73.557,258.171 70.912,244.017 70.291 C 239.914 70.111,239.837 70.097,240.010 69.566 C 240.106 69.267,240.686 67.359,241.299 65.324 C 242.641 60.868,242.936 60.474,245.373 59.880 C 246.568 59.590,254.387 59.609,256.819 59.909 M162.702 76.478 C 163.317 77.105,167.925 85.117,167.764 85.278 C 167.700 85.342,166.338 85.500,164.737 85.631 C 158.925 86.104,156.782 86.413,153.364 87.274 C 142.096 90.112,132.531 94.974,123.444 102.483 C 121.847 103.804,120.423 104.884,120.280 104.884 C 119.713 104.884,120.112 90.990,120.708 89.975 C 122.491 86.940,133.416 80.147,139.928 78.025 C 146.324 75.941,161.184 74.931,162.702 76.478 M252.939 76.470 C 262.320 77.833,268.668 80.696,276.350 87.028 C 280.320 90.300,280.062 89.562,280.160 97.911 C 280.233 104.110,280.196 104.936,279.855 104.805 C 279.641 104.723,277.873 103.408,275.925 101.883 C 263.139 91.875,252.523 87.427,238.004 85.997 C 231.512 85.357,231.908 85.639,233.681 82.922 C 234.391 81.835,235.419 80.056,235.966 78.969 C 236.929 77.055,237.497 76.334,238.303 76.000 C 239.055 75.689,249.976 76.040,252.939 76.470 M241.087 91.932 C 254.506 93.925,265.856 99.683,277.060 110.183 C 281.078 113.949,281.214 114.151,281.486 116.794 C 281.841 120.226,285.823 140.486,286.654 143.084 C 287.431 145.512,287.866 147.815,287.547 147.815 C 287.446 147.815,283.121 143.729,277.936 138.735 C 259.172 120.663,246.292 111.940,226.992 104.234 C 222.840 102.576,215.849 99.347,215.748 99.041 C 215.712 98.932,216.347 98.496,217.160 98.072 C 219.051 97.085,221.932 95.205,224.100 93.543 C 225.036 92.826,226.098 92.116,226.461 91.966 C 228.094 91.288,236.619 91.268,241.087 91.932 M176.717 94.075 C 178.724 95.482,181.513 97.246,182.916 97.995 C 186.040 99.664,186.046 99.629,182.405 100.676 C 171.652 103.767,154.598 112.515,142.245 121.276 C 137.741 124.470,136.156 125.856,124.659 136.652 C 118.498 142.438,113.131 147.461,112.734 147.815 L 112.011 148.458 112.175 147.382 C 112.266 146.790,113.142 143.493,114.122 140.055 C 116.614 131.316,117.279 128.085,118.488 118.829 C 119.146 113.787,119.121 113.833,123.727 109.546 C 133.201 100.725,145.569 94.135,156.298 92.188 C 159.456 91.615,159.657 91.603,166.676 91.558 L 173.069 91.517 176.717 94.075 M201.721 103.514 C 208.772 108.261,228.986 135.219,225.494 135.219 C 225.341 135.219,223.859 136.043,222.200 137.051 C 206.918 146.336,190.758 146.177,177.506 136.612 C 176.234 135.694,175.026 134.843,174.823 134.721 C 173.836 134.133,174.838 132.375,181.673 122.708 C 187.308 114.739,189.689 111.841,195.019 106.467 C 199.700 101.747,199.335 101.908,201.721 103.514 M188.689 104.765 C 188.689 104.841,186.493 107.634,183.810 110.972 C 173.845 123.369,168.035 132.754,165.060 141.260 C 161.658 150.982,151.761 164.102,143.830 169.400 C 133.043 176.607,121.247 177.312,108.997 171.480 C 106.665 170.370,104.545 169.392,104.288 169.308 C 101.302 168.328,117.637 149.201,133.800 134.752 C 143.624 125.970,159.102 116.042,171.517 110.559 C 177.953 107.718,188.689 104.095,188.689 104.765 M214.886 105.530 C 230.737 110.050,249.028 120.305,265.941 134.154 C 277.387 143.527,298.706 168.492,295.953 169.299 C 295.705 169.372,295.039 169.671,294.473 169.964 C 291.712 171.394,290.427 171.991,288.226 172.865 C 266.743 181.400,245.916 168.193,233.929 138.432 C 230.649 130.287,222.909 118.349,214.929 109.126 C 212.321 106.112,211.568 105.154,211.568 104.850 C 211.568 104.561,211.270 104.500,214.886 105.530 M19.309 110.909 C 20.245 111.107,22.269 111.844,23.808 112.547 C 25.347 113.249,28.039 114.476,29.789 115.274 C 35.168 117.726,40.913 119.708,56.041 124.332 C 72.527 129.371,86.075 143.103,94.806 163.625 C 97.360 169.627,97.639 168.709,89.877 179.820 C 88.098 182.365,86.265 185.181,85.803 186.077 L 84.961 187.706 83.408 187.553 C 78.171 187.037,72.237 183.944,69.139 180.115 C 65.609 175.752,64.454 171.325,64.134 160.925 C 63.685 146.334,61.063 141.636,50.579 136.637 C 44.654 133.812,31.656 130.334,27.022 130.334 C 20.547 130.334,18.534 136.987,23.579 141.714 C 24.519 142.595,26.147 144.126,27.196 145.116 C 34.047 151.581,36.470 157.840,38.566 174.491 C 40.385 188.941,41.942 194.286,46.216 200.749 C 51.129 208.179,59.261 212.587,69.730 213.496 C 70.826 213.591,71.722 213.722,71.722 213.788 C 71.722 213.854,71.562 214.220,71.366 214.601 C 69.465 218.307,69.877 225.934,72.239 230.759 C 73.482 233.298,73.481 233.261,72.381 235.700 C 71.254 238.202,70.286 241.548,70.049 243.766 C 69.947 244.720,69.764 245.501,69.644 245.501 C 69.393 245.501,62.179 241.710,58.740 239.771 C 30.222 223.686,11.451 186.842,6.806 137.832 C 5.685 126.004,5.849 119.783,7.365 116.710 C 9.875 111.621,13.763 109.733,19.309 110.909 M387.866 111.326 C 393.681 114.231,395.112 121.014,393.451 137.789 C 390.282 169.784,380.874 197.856,367.216 216.067 C 357.849 228.556,351.691 233.959,338.432 241.322 C 329.845 246.091,330.089 246.021,330.081 243.692 C 330.076 242.120,329.499 240.008,328.279 237.087 C 326.806 233.561,326.786 233.301,327.841 231.206 C 330.328 226.264,330.782 220.164,329.032 215.185 C 328.758 214.407,328.535 213.750,328.535 213.725 C 328.535 213.699,329.489 213.602,330.656 213.508 C 344.242 212.419,353.022 205.654,357.940 192.484 C 359.764 187.600,360.694 182.764,362.206 170.308 C 363.041 163.429,364.027 159.432,366.043 154.750 C 367.956 150.309,369.846 147.930,376.150 142.031 C 379.669 138.737,380.284 136.328,378.442 133.051 C 376.796 130.124,374.845 129.725,368.252 130.964 C 343.472 135.620,336.362 142.196,335.717 161.054 C 335.303 173.165,334.435 176.486,330.634 180.516 C 325.842 185.596,316.018 189.309,314.620 186.568 C 314.003 185.357,311.660 181.812,308.121 176.735 C 305.212 172.561,303.599 169.754,303.599 168.864 C 303.599 165.025,312.627 148.639,318.808 141.260 C 326.931 131.561,334.071 127.435,353.085 121.457 C 364.200 117.962,368.540 116.325,375.590 112.970 C 381.436 110.188,384.711 109.749,387.866 111.326 M31.620 136.362 C 43.347 137.937,52.872 142.376,56.157 147.797 C 58.116 151.030,58.782 154.526,59.122 163.351 C 59.763 180.005,64.808 187.534,78.278 191.934 C 80.066 192.518,80.828 192.885,80.781 193.139 C 80.473 194.800,73.462 208.349,72.941 208.289 C 72.624 208.253,71.035 208.118,69.409 207.988 C 61.748 207.377,54.946 203.936,51.490 198.924 C 47.237 192.757,45.415 186.275,43.698 171.208 C 42.044 156.697,38.644 148.829,30.591 140.874 C 25.141 135.490,25.140 135.492,31.620 136.362 M373.779 136.402 C 373.779 136.628,371.941 138.624,369.695 140.836 C 361.410 148.997,358.159 156.538,356.412 171.645 C 353.787 194.355,349.392 202.786,338.303 206.383 C 335.324 207.349,327.105 208.700,326.699 208.291 C 326.455 208.045,319.280 193.116,319.280 192.854 C 319.280 192.747,320.119 192.447,321.144 192.188 C 334.932 188.704,340.348 180.371,341.129 161.440 C 341.594 150.139,343.792 145.508,350.444 141.808 C 355.814 138.822,373.779 134.660,373.779 136.402 M175.707 141.914 C 177.749 143.292,179.999 144.473,180.583 144.473 C 181.141 144.473,181.088 144.773,180.088 147.274 C 171.869 167.817,178.562 198.076,197.007 223.765 C 198.017 225.171,199.017 226.633,199.229 227.013 L 199.614 227.705 206.041 218.213 C 214.256 206.079,215.868 203.086,218.692 194.730 C 224.110 178.696,224.898 164.997,221.214 150.900 C 219.427 144.060,219.483 144.728,220.662 144.314 C 221.210 144.121,222.887 143.096,224.389 142.036 C 229.098 138.713,229.607 139.178,231.714 148.715 C 235.209 164.537,234.589 174.838,228.674 199.219 C 222.600 224.256,221.127 237.469,222.875 251.256 C 223.003 252.264,223.187 254.419,223.285 256.044 L 223.461 258.999 221.178 260.194 C 210.680 265.689,195.045 265.550,179.434 259.822 L 176.992 258.926 176.911 257.676 C 176.867 256.989,177.084 252.956,177.393 248.715 C 178.611 232.024,177.893 225.303,172.618 203.985 C 167.982 185.248,166.885 178.992,166.442 168.766 C 166.033 159.320,168.180 146.352,171.114 140.552 L 171.731 139.331 172.819 140.015 C 173.418 140.391,174.717 141.245,175.707 141.914 M188.438 147.817 C 194.113 149.766,199.397 149.821,210.602 148.050 C 215.152 147.331,214.577 146.825,216.027 152.828 C 220.622 171.846,216.362 192.682,203.743 212.914 C 202.532 214.857,201.355 216.910,201.128 217.477 C 200.542 218.943,199.692 218.918,199.024 217.416 C 198.757 216.816,197.595 214.791,196.442 212.917 C 189.806 202.131,184.391 188.228,183.171 178.845 C 182.615 174.571,182.363 163.039,182.752 159.717 C 183.204 155.864,185.510 147.044,186.065 147.044 C 186.132 147.044,187.199 147.392,188.438 147.817 M160.925 163.512 C 160.925 175.028,162.646 186.216,167.484 206.170 C 172.024 224.891,172.733 230.379,172.191 242.609 C 172.021 246.462,171.798 249.614,171.695 249.614 C 171.434 249.614,170.409 248.251,167.539 244.087 C 149.536 217.971,119.190 204.526,84.388 207.245 C 82.234 207.413,80.392 207.470,80.293 207.371 C 79.320 206.398,83.946 198.184,92.567 185.572 C 97.262 178.704,100.110 174.349,100.322 173.713 C 100.385 173.524,102.037 174.192,104.774 175.516 C 124.728 185.166,142.460 181.505,156.605 164.815 C 161.121 159.487,160.925 159.546,160.925 163.512 M240.643 161.375 C 241.139 161.906,242.456 163.480,243.570 164.873 C 246.508 168.548,251.249 172.553,256.619 175.895 C 267.598 182.727,283.956 182.339,296.656 174.945 C 299.522 173.276,299.467 173.265,301.131 175.912 C 301.912 177.156,304.782 181.436,307.508 185.424 C 315.909 197.713,320.884 206.452,319.988 207.347 C 319.925 207.410,317.281 207.330,314.114 207.169 C 289.573 205.919,268.739 211.519,252.319 223.779 C 249.159 226.138,232.658 243.778,230.771 246.815 C 229.613 248.677,228.649 249.821,228.431 249.591 C 228.170 249.317,227.716 236.002,227.871 233.162 C 228.302 225.284,229.175 220.585,233.535 202.699 C 237.340 187.089,238.797 177.536,239.235 165.332 C 239.332 162.626,239.486 160.411,239.577 160.411 C 239.667 160.411,240.147 160.845,240.643 161.375 M91.260 212.564 C 91.260 212.688,90.966 213.453,90.608 214.264 C 88.175 219.763,87.949 223.825,89.693 230.674 C 90.298 233.053,90.754 235.037,90.705 235.083 C 90.620 235.164,89.589 234.951,85.156 233.937 C 77.041 232.082,74.460 227.039,76.491 217.008 C 77.273 213.144,76.457 213.761,81.491 213.230 C 83.824 212.985,86.485 212.700,87.404 212.598 C 89.879 212.323,91.260 212.311,91.260 212.564 M303.284 214.286 C 306.925 220.187,307.214 225.845,304.240 232.950 L 303.333 235.117 298.517 235.428 C 295.869 235.599,293.049 235.738,292.250 235.736 L 290.798 235.733 290.675 230.527 C 290.516 223.806,289.823 221.393,286.639 216.487 C 286.055 215.587,285.624 214.804,285.682 214.747 C 285.934 214.495,290.084 213.855,295.524 213.229 C 298.764 212.856,301.464 212.501,301.526 212.440 C 301.810 212.159,302.267 212.638,303.284 214.286 M316.581 212.995 C 318.560 213.210,320.809 213.469,321.578 213.570 L 322.977 213.753 323.556 216.060 C 326.301 226.996,323.323 232.358,313.408 234.331 C 311.760 234.659,310.209 235.006,309.961 235.101 C 309.338 235.340,309.367 235.064,310.415 230.799 C 312.255 223.310,312.021 219.117,309.482 214.082 C 309.074 213.273,308.740 212.533,308.740 212.438 C 308.740 212.241,311.378 212.428,316.581 212.995 M102.492 213.109 C 104.216 213.243,107.339 213.639,109.433 213.988 C 111.526 214.338,113.543 214.659,113.914 214.703 L 114.589 214.781 112.962 217.478 C 110.194 222.065,109.254 225.860,109.254 232.448 L 109.254 235.733 107.776 235.737 C 106.963 235.739,104.172 235.598,101.574 235.424 L 96.849 235.107 96.348 233.942 C 93.577 227.504,93.544 218.125,96.278 214.540 C 96.662 214.037,96.991 213.623,97.010 213.621 C 97.029 213.619,97.506 213.450,98.072 213.246 C 99.312 212.800,98.745 212.817,102.492 213.109 M124.121 217.528 C 128.302 218.855,136.518 222.479,136.486 222.981 C 136.443 223.661,136.027 224.189,134.628 225.337 C 131.098 228.236,126.735 236.272,126.735 239.875 C 126.735 240.529,126.382 240.492,123.735 239.565 C 121.551 238.799,120.965 238.616,117.177 237.514 L 115.460 237.014 115.137 235.538 C 113.918 229.973,115.308 223.830,119.124 217.914 C 120.237 216.189,119.972 216.210,124.121 217.528 M281.474 218.610 C 285.014 224.471,286.092 229.485,285.071 235.349 L 284.795 236.935 279.265 238.669 C 276.224 239.623,273.688 240.354,273.628 240.295 C 273.569 240.235,273.399 239.503,273.251 238.667 C 272.372 233.710,269.734 229.235,265.283 225.153 C 263.118 223.167,262.768 222.622,263.659 222.622 C 263.874 222.622,265.978 221.703,268.336 220.580 C 270.693 219.456,273.837 218.136,275.321 217.645 C 280.203 216.031,279.886 215.981,281.474 218.610 M144.138 227.665 C 146.417 228.971,155.013 236.607,155.013 237.323 C 155.013 237.426,154.231 237.966,153.276 238.524 C 148.552 241.283,146.994 242.963,144.584 247.901 C 143.698 249.715,142.912 251.261,142.838 251.335 C 142.764 251.410,141.048 250.205,139.025 248.658 C 137.002 247.110,134.690 245.410,133.887 244.878 C 130.664 242.742,132.488 235.069,137.477 229.781 C 140.357 226.728,141.739 226.288,144.138 227.665 M260.516 227.749 C 264.173 230.009,267.866 237.020,267.866 241.703 C 267.866 243.749,267.729 243.937,264.845 245.835 C 263.467 246.742,261.438 248.251,260.337 249.188 C 257.199 251.859,257.518 251.897,256.000 248.665 C 253.498 243.337,251.998 241.597,247.640 238.968 C 244.810 237.261,244.824 237.444,247.331 234.833 C 254.032 227.853,257.591 225.941,260.516 227.749 M80.378 238.070 C 84.909 239.658,85.775 239.873,89.068 240.233 C 90.910 240.434,94.846 240.723,97.815 240.877 C 121.644 242.106,134.700 248.122,145.972 263.068 C 152.895 272.248,163.679 295.498,164.171 302.305 C 164.285 303.884,161.752 320.853,161.341 321.264 C 160.004 322.601,155.541 314.505,150.753 302.057 C 143.716 283.757,139.728 276.412,133.055 269.454 C 124.868 260.919,112.883 256.796,101.799 258.702 C 100.456 258.932,98.042 259.354,96.434 259.638 C 81.557 262.266,72.476 253.221,76.499 239.782 C 77.371 236.870,77.186 236.952,80.378 238.070 M323.693 239.846 C 325.662 246.314,324.457 251.934,320.196 256.166 C 315.853 260.479,312.600 260.920,299.341 258.992 C 275.934 255.590,261.195 268.443,249.074 302.828 C 245.955 311.676,243.286 317.046,240.582 319.910 C 238.663 321.943,238.778 322.157,237.392 314.003 C 235.459 302.637,235.519 301.335,238.312 294.015 C 248.045 268.502,258.612 254.561,274.293 246.549 C 281.696 242.767,287.488 241.526,299.614 241.123 C 310.553 240.760,313.162 240.383,319.023 238.314 C 322.934 236.934,322.793 236.887,323.693 239.846 M160.899 243.818 C 162.959 246.410,168.895 256.207,168.895 257.014 C 168.895 257.134,168.287 257.425,167.545 257.661 C 163.616 258.909,158.129 263.293,156.785 266.260 C 156.448 267.002,156.114 267.606,156.043 267.602 C 155.585 267.575,147.815 256.470,147.819 255.848 C 147.853 250.573,152.100 244.520,157.227 242.440 C 159.107 241.677,159.237 241.726,160.899 243.818 M244.183 243.233 C 248.875 245.474,251.998 250.192,252.237 255.398 C 252.294 256.643,252.226 256.777,250.102 259.640 C 248.895 261.266,247.064 263.741,246.032 265.141 L 244.156 267.685 243.356 266.169 C 241.520 262.688,234.389 257.349,231.551 257.330 C 230.799 257.324,232.631 254.083,238.008 245.910 C 239.301 243.943,240.360 242.227,240.360 242.097 C 240.360 241.693,241.942 242.163,244.183 243.233 M170.595 262.789 C 170.415 263.446,169.584 269.229,168.242 279.177 C 166.652 290.959,166.366 291.652,164.920 287.255 C 164.374 285.595,162.996 282.375,161.858 280.100 C 158.555 273.494,158.789 271.365,163.335 266.705 C 165.131 264.865,165.799 264.376,167.874 263.384 C 170.686 262.041,170.808 262.014,170.595 262.789 M232.276 263.368 C 236.056 265.182,239.720 269.150,240.394 272.158 C 240.807 274.004,240.455 275.461,238.666 279.324 C 237.885 281.011,236.953 283.085,236.596 283.933 C 233.927 290.267,233.419 291.154,233.419 289.479 C 233.419 288.710,231.691 276.539,230.325 267.685 C 229.504 262.366,229.487 262.211,229.714 262.211 C 229.798 262.211,230.950 262.731,232.276 263.368 M114.340 264.399 C 124.619 266.822,123.501 284.913,112.725 290.532 C 99.404 297.479,84.515 285.639,88.253 271.071 C 89.392 266.633,90.495 265.554,93.895 265.553 C 96.273 265.553,96.293 265.609,94.639 267.701 C 92.681 270.177,92.687 270.157,92.680 274.165 C 92.671 279.311,94.513 282.579,98.663 284.781 C 110.791 291.215,122.467 276.745,113.404 266.513 C 111.009 263.810,111.124 264.010,111.978 264.014 C 112.389 264.016,113.452 264.189,114.340 264.399 M288.683 264.203 C 288.679 264.309,287.876 265.315,286.897 266.438 C 284.162 269.577,283.674 270.615,283.688 273.265 C 283.773 289.475,305.027 291.466,307.449 275.490 C 307.979 271.996,307.423 269.879,305.307 267.326 C 303.750 265.448,303.720 265.489,306.575 265.592 C 310.080 265.719,311.257 267.177,312.255 272.622 C 314.997 287.590,297.475 298.429,285.370 289.253 C 278.256 283.861,276.428 269.964,282.283 265.795 C 283.725 264.768,288.704 263.530,288.683 264.203 M181.125 266.077 C 187.172 268.006,190.571 268.856,193.059 269.063 C 196.464 269.345,196.515 269.544,194.460 274.550 C 191.551 281.635,188.839 288.454,186.843 293.702 C 184.790 299.097,181.575 307.322,177.447 317.738 C 176.242 320.778,174.874 324.421,174.407 325.835 L 173.558 328.405 172.705 328.321 C 172.235 328.275,171.157 327.881,170.308 327.445 C 165.994 325.228,166.301 325.456,166.445 324.579 C 166.517 324.139,166.925 321.812,167.351 319.409 C 170.280 302.880,175.578 268.521,175.578 266.054 C 175.578 264.169,175.142 264.167,181.125 266.077 M225.610 273.413 C 226.912 283.378,228.089 291.023,231.255 310.076 C 232.586 318.093,233.670 324.860,233.662 325.115 C 233.647 325.624,228.787 328.138,227.378 328.365 L 226.607 328.489 215.475 299.632 C 202.341 265.584,203.702 269.666,205.484 269.666 C 209.814 269.666,215.709 268.387,220.823 266.338 C 222.590 265.630,224.149 265.086,224.287 265.128 C 224.425 265.171,225.020 268.899,225.610 273.413 M128.805 272.671 C 134.605 278.141,139.810 287.702,145.472 303.281 C 150.042 315.856,151.994 319.409,157.435 325.064 C 160.515 328.266,160.562 328.410,159.766 332.247 C 158.975 336.062,155.211 357.744,154.364 363.368 C 153.545 368.799,154.070 368.349,148.315 368.549 C 138.107 368.905,129.522 366.173,120.492 359.695 C 115.503 356.116,114.648 354.860,114.155 350.386 C 112.935 339.324,110.411 332.227,103.777 321.208 C 98.294 312.102,96.883 307.975,96.491 299.892 C 96.323 296.437,96.334 296.320,96.809 296.504 C 112.429 302.535,129.845 288.259,126.648 272.044 C 126.353 270.545,126.640 270.628,128.805 272.671 M273.661 271.530 C 273.563 271.848,273.420 273.265,273.344 274.679 C 272.540 289.594,288.248 301.915,301.824 297.017 C 302.764 296.678,303.623 296.401,303.733 296.401 C 304.012 296.401,303.668 301.991,303.217 304.778 C 302.341 310.196,300.593 314.416,296.358 321.337 C 289.935 331.831,287.346 339.016,286.122 349.743 C 285.590 354.402,285.045 355.495,282.049 357.916 C 272.514 365.620,261.036 369.531,250.654 368.613 C 248.739 368.444,247.025 368.171,246.845 368.006 C 246.438 367.635,240.103 331.093,240.103 329.117 L 240.103 327.707 242.756 324.972 C 248.098 319.464,250.079 315.908,254.372 304.125 C 260.405 287.570,265.430 278.362,271.672 272.429 C 273.336 270.848,273.958 270.566,273.661 271.530 M201.883 278.985 C 202.531 280.858,204.270 285.456,205.747 289.203 C 223.699 334.745,222.415 331.281,221.426 331.508 C 221.023 331.601,218.612 332.256,216.067 332.965 C 203.963 336.337,195.058 336.255,183.290 332.662 C 181.947 332.252,180.357 331.787,179.756 331.630 C 178.026 331.175,177.974 331.404,182.434 319.923 C 183.698 316.671,188.022 305.363,192.044 294.795 C 200.709 272.029,199.916 273.304,201.883 278.985 M169.871 333.010 C 181.233 338.048,184.716 339.006,196.658 340.373 C 206.953 341.552,218.186 339.233,229.828 333.524 C 232.552 332.188,234.798 331.127,234.820 331.165 C 234.842 331.203,235.043 332.506,235.268 334.062 C 235.492 335.617,236.682 342.595,237.913 349.569 C 239.144 356.543,240.101 362.299,240.039 362.360 C 239.978 362.422,239.070 362.077,238.023 361.594 C 228.255 357.089,218.345 365.552,212.341 383.527 C 209.261 392.746,206.500 396.240,201.554 397.172 C 196.033 398.212,191.625 394.220,188.439 385.293 C 181.031 364.538,173.354 357.451,162.689 361.522 C 161.327 362.042,160.156 362.468,160.088 362.468 C 160.020 362.468,160.121 361.803,160.312 360.990 C 160.777 359.012,162.704 347.526,164.010 338.946 C 165.075 331.946,165.230 331.105,165.453 331.105 C 165.520 331.105,167.508 331.963,169.871 333.010 M118.813 365.131 C 120.131 366.030,122.211 367.308,123.436 367.970 C 126.275 369.505,126.145 369.303,126.607 372.901 C 128.385 386.731,133.998 396.618,144.626 404.639 L 146.965 406.404 146.156 411.241 C 145.122 417.418,145.185 417.335,142.497 416.084 C 129.004 409.802,120.610 396.295,117.103 375.224 C 116.572 372.035,115.942 365.926,115.939 363.946 C 115.938 363.250,116.243 363.376,118.813 365.131 M283.978 367.031 C 283.067 386.892,274.730 405.201,263.111 412.857 C 256.635 417.124,254.722 417.571,254.371 414.897 C 254.289 414.268,253.972 412.108,253.668 410.097 C 253.363 408.086,253.165 406.405,253.228 406.362 C 265.382 398.053,270.349 390.070,273.153 374.339 C 274.086 369.102,274.062 369.142,277.244 367.622 C 278.378 367.081,280.289 365.935,281.491 365.077 C 284.325 363.052,284.167 362.928,283.978 367.031 M170.101 366.620 L 171.278 366.917 171.111 369.641 C 170.675 376.725,170.641 379.000,170.928 381.771 C 171.949 391.628,174.883 398.691,181.225 406.555 C 184.308 410.378,184.027 412.339,180.397 412.339 C 171.386 412.339,161.143 385.504,164.859 371.629 C 166.154 366.793,167.120 365.870,170.101 366.620 M232.225 366.678 C 240.995 370.342,233.607 405.572,222.869 411.296 C 217.510 414.152,214.749 411.096,218.778 406.767 C 225.984 399.024,230.411 385.254,229.323 373.969 C 228.663 367.131,228.657 367.720,229.393 366.984 C 230.134 366.243,230.970 366.153,232.225 366.678 M159.126 372.494 C 159.126 373.693,159.040 374.036,158.740 374.036 C 158.440 374.036,158.355 373.693,158.355 372.494 C 158.355 371.294,158.440 370.951,158.740 370.951 C 159.040 370.951,159.126 371.294,159.126 372.494 M241.902 372.494 C 241.902 373.693,241.817 374.036,241.517 374.036 C 241.217 374.036,241.131 373.693,241.131 372.494 C 241.131 371.294,241.217 370.951,241.517 370.951 C 241.817 370.951,241.902 371.294,241.902 372.494 M135.438 372.870 C 141.094 374.303,146.363 374.744,150.482 374.128 L 152.249 373.863 152.073 376.070 C 151.976 377.284,151.206 382.066,150.363 386.697 C 149.520 391.327,148.663 396.231,148.459 397.593 C 148.015 400.551,148.113 400.419,146.840 399.770 C 141.673 397.134,134.012 384.591,132.692 376.607 C 131.874 371.655,131.681 371.917,135.438 372.870 M267.866 373.533 C 267.866 381.383,259.387 396.757,253.433 399.703 C 252.067 400.378,252.075 400.389,251.707 397.495 C 251.541 396.188,250.837 392.139,250.143 388.497 C 248.006 377.293,247.611 373.738,248.522 373.914 C 253.079 374.797,257.493 374.572,263.394 373.156 C 268.187 372.006,267.866 371.979,267.866 373.533 M158.612 377.205 C 158.612 391.274,163.604 405.232,171.436 413.061 C 181.028 422.649,189.732 417.866,190.642 402.506 C 190.740 400.845,190.867 399.486,190.922 399.486 C 190.978 399.486,191.916 400.009,193.006 400.649 C 198.109 403.646,204.344 403.435,208.268 400.132 C 209.387 399.191,209.511 399.301,209.512 401.221 C 209.519 416.710,218.799 422.862,228.317 413.687 C 235.858 406.417,240.791 393.121,241.550 378.016 C 241.785 373.327,241.516 372.086,245.995 398.458 C 251.875 433.078,251.501 430.431,251.523 437.661 L 251.542 443.830 250.698 446.272 C 247.730 454.857,238.701 467.831,236.636 466.479 C 213.115 451.067,188.971 450.639,165.619 465.221 L 162.986 466.865 161.959 466.040 C 157.446 462.414,150.923 451.683,149.057 444.817 C 148.049 441.104,148.368 432.952,149.878 423.907 C 150.290 421.433,151.154 415.938,151.797 411.697 C 152.440 407.455,153.771 399.415,154.754 393.830 C 156.731 382.599,157.584 377.098,157.584 375.564 C 157.584 374.722,157.670 374.550,158.098 374.550 C 158.579 374.550,158.612 374.722,158.612 377.205 M197.429 464.653 L 197.429 469.152 196.301 469.152 C 194.943 469.152,191.957 469.700,187.796 470.715 C 186.103 471.128,184.643 471.465,184.553 471.465 C 184.293 471.465,180.812 463.280,181.015 463.145 C 181.099 463.089,183.095 462.619,188.422 461.398 C 191.224 460.756,194.656 460.221,196.208 460.183 L 197.429 460.154 197.429 464.653 M209.254 460.890 C 212.699 461.617,219.141 463.080,219.256 463.160 C 219.313 463.200,219.002 464.015,218.566 464.971 C 218.130 465.927,217.345 467.786,216.823 469.101 L 215.874 471.492 215.071 471.327 C 214.629 471.237,212.879 470.834,211.183 470.432 C 207.173 469.482,205.302 469.152,203.937 469.152 L 202.828 469.152 202.828 464.618 L 202.828 460.084 204.949 460.256 C 206.115 460.351,208.053 460.636,209.254 460.890 M177.105 467.929 C 177.435 468.953,178.097 470.650,178.576 471.702 C 179.513 473.758,179.531 473.664,178.021 474.462 C 177.596 474.686,176.404 475.392,175.371 476.031 C 173.174 477.389,173.341 477.425,170.437 474.979 C 166.168 471.384,166.247 470.687,171.250 467.771 C 175.078 465.540,176.347 465.574,177.105 467.929 M228.170 467.458 C 230.524 468.626,233.162 470.685,233.162 471.354 C 233.162 472.087,227.576 477.121,226.763 477.121 C 226.615 477.121,225.710 476.615,224.751 475.998 C 223.792 475.380,222.516 474.626,221.915 474.322 C 221.314 474.017,220.823 473.723,220.823 473.668 C 220.823 473.613,221.211 472.661,221.685 471.552 C 222.159 470.444,222.816 468.744,223.143 467.774 L 223.739 466.011 224.778 466.150 C 225.349 466.227,226.876 466.815,228.170 467.458 "
       stroke="none"
       fill="#fcfcfc"
       fill-rule="evenodd"
       style="fill:#552200" />
    <path
       id="path1"
       d=""
       stroke="none"
       fill="#100fcfc"
       fill-rule="evenodd"
       style="fill:#552200" />
    <path
       id="path2"
       d=""
       stroke="none"
       fill="#100fcfc"
       fill-rule="evenodd"
       style="fill:#552200" />
    <path
       id="path3"
       d=""
       stroke="none"
       fill="#100fcfc"
       fill-rule="evenodd"
       style="fill:#552200" />
    <path
       id="path4"
       d=""
       stroke="none"
       fill="#100fcfc"
       fill-rule="evenodd"
       style="fill:#552200" />
  </g>
</svg>
